# xmcd
#
# Track frame offsets:
#  150
#  19177
#  32487
#  51190
#  64905
#  84292
#  102887
#  115912
#  130740
#  140620
#  165502
#  178262
#  194122
#  219670
#  231865
#  250762
#  267950
#  284385
#  293865
#
# Disc length: 4231 seconds
#
# Revision: 5
# Processed by: cddbd v1.5.2PL0 Copyright (c) Steve Scherf et al.
# Submitted via: Collectorz.com Music Collector 6.9
#
DISCID=1d108513
DTITLE=Daniel O'Donnell - A Date with Daniel O'donnell Live CD 1
DYEAR=1993
DGENRE=Country
TTITLE0=I Need You (Intro)/My Shoes Keep Walking Back To You
TTITLE1=Pretty Little Girl From Omagh
TTITLE2=The Love in Your Eyes
TTITLE3=My Irish Country Home
TTITLE4=My Donegal Shore
TTITLE5=Follow Your Dream
TTITLE6=Whatever Happened To Old Fashioned Love
TTITLE7=I Just Want To Dance with You
TTITLE8=Our House Is a Home
TTITLE9=Medley: Rose of Tralee/Dublin in the Rare Auld Times/Galway Bay
TTITLE10=Never Ending Song of Love
TTITLE11=The Wedding Song
TTITLE12=The Mountains of Mourne
TTITLE13=The Little Things
TTITLE14=Somewhere Between (Duet with Mary Duff)
TTITLE15=I Need You
TTITLE16=Medley: It's a Long Way To Tipperary/Pack Up Your Troubles/If You're I
TTITLE17=Stand Beside Me (Play Off)
TTITLE18=How Great Thou Art
EXTD=
EXTT0=
EXTT1=
EXTT2=
EXTT3=
EXTT4=
EXTT5=
EXTT6=
EXTT7=
EXTT8=
EXTT9=
EXTT10=
EXTT11=
EXTT12=
EXTT13=
EXTT14=
EXTT15=
EXTT16=
EXTT17=
EXTT18=
PLAYORDER=
